# xmcd CD Database Entry
#
# Track frame offsets:
# 150
# 17491
# 31504
# 43801
# 59944
# 74327
# 89554
# 101166
# 111701
# 122796
# 139566
# 154575
# 166869
# 182761
# 200676
# 216539
# 226202
# 241698
# 246968
# 264408
# 291346
#
# Disc length: 3934 seconds
#
# Revision: 1
# Processed by: cddbd v1.4PL0 Copyright (c) Steve Scherf et al.
# Submitted via: tcd 2.0b
#
DISCID=3b0f5c15
DTITLE=Sconosciuto - Sconosciuto
DYEAR=1900
DGENRE=
TTITLE0=Traccia 1
TTITLE1=Traccia 2
TTITLE2=Traccia 3
TTITLE3=Traccia 4
TTITLE4=Traccia 5
TTITLE5=Traccia 6
TTITLE6=Traccia 7
TTITLE7=Traccia 8
TTITLE8=Traccia 9
TTITLE9=Traccia 10
TTITLE10=Traccia 11
TTITLE11=Traccia 12
TTITLE12=Traccia 13
TTITLE13=Traccia 14
TTITLE14=Traccia 15
TTITLE15=Traccia 16
TTITLE16=Traccia 17
TTITLE17=Traccia 18
TTITLE18=Traccia 19
TTITLE19=Traccia 20
TTITLE20=Traccia 21
EXTD=
EXTT0=
EXTT1=
EXTT2=
EXTT3=
EXTT4=
EXTT5=
EXTT6=
EXTT7=
EXTT8=
EXTT9=
EXTT10=
EXTT11=
EXTT12=
EXTT13=
EXTT14=
EXTT15=
EXTT16=
EXTT17=
EXTT18=
EXTT19=
EXTT20=
PLAYORDER=
